<?xml version="1.0" encoding="UTF-8"?>
<!DOCTYPE svg PUBLIC "-//W3C//DTD SVG 1.1//EN" "http://www.w3.org/Graphics/SVG/1.1/DTD/svg11.dtd">
<!-- Creator: CorelDRAW 2018 (64 Bit Versão de avaliação) -->
<svg xmlns="http://www.w3.org/2000/svg" xml:space="preserve" width="162.56mm" height="91.44mm" version="1.1" style="shape-rendering:geometricPrecision; text-rendering:geometricPrecision; image-rendering:optimizeQuality; fill-rule:evenodd; clip-rule:evenodd"
viewBox="0 0 16256 9144"
 xmlns:xlink="http://www.w3.org/1999/xlink">
 <defs>
  <style type="text/css">
   <![CDATA[
    .fil0 {fill:#FEFEFE}
    .fil1 {fill:#FEFEFE;fill-rule:nonzero}
   ]]>
  </style>
 </defs>
 <g id="Camada_x0020_1">
  <metadata id="CorelCorpID_0Corel-Layer"/>
  <g id="_2378544673136">
   <path class="fil0" d="M6895.88 3739.1c25.76,-250.27 -165.96,-447.5 -24.71,-804.77 14.35,-36.29 30.48,-74.17 49.03,-109.09 15.75,-29.67 49.63,-69.14 57.01,-91.45 -3.21,37.59 -87.59,195.04 -105.16,387.26 -11.91,130.39 17.34,340.01 76.33,435.84 1.61,-2.34 4.36,-4.45 8.45,-16.02 3.63,-10.26 4.55,-15.47 6.35,-26.79 10.42,-65.47 7.58,-116.18 -0.99,-180.8 20.3,9.37 26.03,10.21 48.75,43.59 98.87,145.27 -9.25,372.92 -90.58,460.97 -103.59,112.18 -337.96,69.11 -167.57,415.92 32.44,66.03 79.5,203.16 116.38,235.25 93.3,81.2 351.77,-18.19 565.2,154.36 48.69,39.37 126.52,126.39 148.02,208.43 -64.25,-78.95 -151.9,-204.44 -282.68,-225.5 124.08,142.33 167.43,320.25 219.31,509.46 28.65,104.45 6.51,117.98 110.51,144.69 -9.33,-74.08 -11.19,-80.28 -9.73,-159.71 1.39,-75.61 -13.62,-79.81 -32.57,-129.67 85.27,55.82 61.59,101.62 88.94,214.32 23.69,97.57 50.37,142.47 159.22,152.3l1.89 -185.48 18.42 50.1c6.73,-50.18 6.66,-105.72 -4.46,-153.58 -8.37,-36.07 -33.3,-82.55 -36.77,-110.34 36.48,64.86 54.78,57.1 85.79,180.89 20.42,81.54 23.2,169.12 21.7,256.07l95.47 38.24c2.19,-63.5 -6.19,-117.76 -7.24,-171.1 -0.56,-28.33 27.84,-102.59 36.3,-140.09 30.08,65.29 29.54,272.03 52.14,344.92 87.54,28.39 55.87,-12.7 77.61,-146.54 6.37,-39.27 23.38,-173.91 34.04,-198.11 57.76,161.32 25.84,153.67 27.47,307.95l98.03 -33.23c-2.19,-154.2 13.02,-343.84 102.1,-427.3 -26.82,92.65 -46.37,139.23 -40.46,251.83l20.07 -50.35 3.56 185.76c237.16,-19.19 109.02,-273.96 248.45,-366.62 -54.88,137.23 -20.39,103.3 -42.6,290.04 102.49,-25.94 81.83,-35.04 110.25,-136.84 36.04,-129.03 63.93,-242.06 119,-365.63 36.08,-80.96 61.78,-102.36 101.26,-152.44 -136.59,27.59 -213.6,143.68 -283.34,225.6 20.18,-78.39 102.67,-169.7 148.3,-207.73 204.7,-170.64 475.38,-75.94 565.51,-154.07 31.19,-27.03 94,-186.56 119.21,-240.45 164.96,-352.65 -74.33,-295.41 -178.27,-421.03 -71.07,-85.88 -156.6,-269.11 -107.91,-400.26 21.18,-57.06 43.21,-70.35 75.32,-102.24 -1.68,68.04 -24.43,174.16 11.75,230.53 60.39,-72.62 86.19,-301.87 78.78,-418.26 -12.44,-195.58 -71.53,-269.87 -103.45,-394.48 77.86,80.51 155.82,305 154.38,461.49 -1.88,205.03 -91.3,350.12 -77,534.09 33.16,-18.49 107.34,-234.29 124.84,-289.76 118.61,-376.14 102.07,-695.02 -180.84,-952.28 -132.51,-120.5 -236.23,-139.76 -393.03,-234.74 -54.63,-33.09 -78.46,-53.18 -128.52,-88.69 -143.73,-101.96 -418.2,-210.33 -646.59,-211.5 -469.99,-2.41 -696.1,272.15 -909.85,366.63 -106.27,46.97 -197.48,92.06 -265.49,161.16 -139.35,141.59 -269.71,289.29 -259.56,589.59 4.35,128.37 31.49,249.46 67.4,363.29 18.32,58.08 91.91,276.85 126.83,296.37zm1051.05 1244.8l19.16 -45.64c26.43,58.59 5.3,127.65 -1.11,179.76 28.63,-75.58 51.64,-136.13 47.97,-237.16 28.75,17.78 45.17,42.86 62.49,70.89l-4.18 -56.93c34.27,5.65 38.22,18.08 56.92,35.76 17.39,-13.97 16.27,-20.49 41.84,-32.08l11.44 29.03c0.08,0.32 1.02,18.94 1.97,23.69 17.48,-33.51 32.81,-53.65 60.38,-70.79 -0.49,51.33 -0.98,84.61 10.96,131.97 9.76,38.74 30.98,79.1 36.61,104.96 -6.24,-67.59 -26.71,-105.39 -3.9,-180.17l21.49 45.03c14.41,-187.44 117.61,-161.71 128.17,-305.91 -17.45,16.22 -103.37,157.33 -231.45,165.42 1.69,-7.05 5.23,-18.63 4.97,-23.73 -1.2,-24.08 0.49,-14.41 -7.18,-24.94 -57.23,63.74 -92.54,66.56 -150.6,-0.18 -6.56,9.58 -6.46,0.94 -6.65,24.95 -0.05,5.87 3.23,16.66 5.03,24.56 -110.84,-11.2 -184.22,-101.61 -230.69,-171.32 -0.75,144.07 89.18,76.84 126.36,312.83zm-52.3 -1646.44c-55.01,25.16 -114.82,105.19 -131.88,188.22 -40.38,196.58 82.73,327.64 222.21,424.94 107.92,75.29 64.8,215.92 39.66,228.92 -105.33,17.2 -214.34,-52.68 -264.3,-104.81 -36.4,-37.99 -53.41,-59.58 -87.91,-96.11 -158.14,-167.44 -346.7,-396.87 -568.13,-366.9l8.82 11.52c1.06,1.18 3.16,3.87 4.48,5.26 1.25,1.33 3.15,3.36 4.55,4.76 3.84,3.8 13.77,11.69 18.59,15.5 41.72,32.98 65.24,55.27 84.92,115.35 55.78,170.34 -136.16,279.11 80.69,387.73 186,93.16 451.35,-8.38 513.8,98.94 -53.73,37.13 -173.97,63.36 -252.74,61.73 -52.95,-1.09 -82.5,-14.74 -130.45,-23.55 -54.65,-10.04 -92.97,0.14 -147.16,5.37 12.13,6.19 242.3,62.35 294.77,60.28 112,-4.42 215.58,-56.55 299.11,-61.73 -50.47,58.38 -82.99,157.11 -81.24,269.12 28.49,-35.42 43.24,-98.17 66.7,-143.83 24.14,-46.98 54.55,-103.15 91.13,-126.47l-19.36 84.53c36.03,-32.16 111.26,-161.32 187.3,-200.47 85.66,43.41 138.66,150.91 183.88,200.29l-14.33 -87.97c39.89,42.31 59.61,67.99 87.31,123.79 22.71,45.76 45.59,114.05 68.18,155.53 9.39,-106.43 -32.62,-221.43 -80.58,-274.65 144.9,10.19 244.03,106.48 445.83,36.7 63.32,-21.9 83.45,-22.91 153.95,-29.62 -92.08,-42.05 -183.06,8.44 -274.99,12.44 -86.42,3.76 -195.84,-30 -261.24,-57.9 8.24,-16.84 4.55,-22.33 48.48,-39.7 137.96,-54.54 370.52,34.18 521.09,-98.75 154.96,-136.83 -127.71,-255.64 119.8,-473.77 0.99,-0.87 13.82,-12.98 14.02,-13.21 13.29,-14.67 1.12,3.21 13.56,-17.65 -209.34,-21.57 -334.93,130.2 -473.43,270.73 -34.28,34.78 -57.01,56.19 -91.04,92.94 -37.98,41.01 -52.96,59.71 -92.34,100.11 -54.59,56.01 -154.36,119.94 -264.98,104.7 -31.88,-34.45 -31.45,-62.55 -24.06,-128.41 13.19,-117.67 121.15,-91.65 231.71,-259.63 108.76,-165.25 59.05,-394.05 -82.37,-459.97 61.14,94.91 114.59,231.17 55.86,366.7 -118.11,272.53 -429.67,280.85 -560.6,16.95 -74.52,-150.18 -9.35,-264.72 42.73,-377.95zm175.65 1364.78c12.42,-18.3 28.05,-58.02 35.01,-82.57 8.1,8.65 7.66,31.17 19.03,37.08 28.81,5.82 19.03,-12.39 56.51,9.43 -1.69,13.44 -10.58,25.92 -5.75,39.86 10.05,-1.24 35.63,-42.34 41.89,-51.97 18.16,-27.92 23.66,-47.43 23.74,-83.51 0.09,-48.27 -57.66,-268.76 -78.19,-294.49 -10.06,8.71 -20.06,26.88 -30.78,37.26 -0.16,-19.5 -5.43,-31.81 -18.77,-37.07 -30.49,22.98 -104.24,299.6 -96.3,333.95 4.03,17.47 44.77,86.66 53.61,92.03z"/>
   <g>
    <g>
     <path class="fil0" d="M7558.12 1701.24l-64.38 192.74 134.46 0.55 23.81 -65.88c40.05,-6.38 223.99,-41.95 246.99,-35.19 22.88,6.71 74.99,32.89 98.11,43.64 34.85,16.19 88.23,-1.5 130.12,-1.52 36.68,-0.01 100.1,14.72 127.03,3.17 27.02,-11.58 74.97,-37.57 101.23,-45.29 18.63,-5.47 234.84,29.87 245.89,39.15 10.28,9.34 16.91,41.22 24.96,61.68l133.36 0.36 -63.8 -193.24c-106.19,-23.99 -299.74,-52.07 -421.92,-72.45 -198.29,-33.07 -96.87,-31.26 -288.77,-0.67 -47.84,7.62 -95.93,16.76 -140.14,24.15 -93.25,15.58 -198.42,29.08 -286.95,48.8z"/>
     <path class="fil0" d="M7038.74 1450.64c4.89,10.75 58.68,56.28 71.67,68.67 25.17,23.98 139.06,113.43 175.33,106.61 32.65,-6.14 78.02,-23.1 114.48,-32.32 168.27,-42.6 317.6,-64.25 499.13,-82.37l16.71 -246.76c-204.17,1.45 -480.08,65.09 -676.04,118.83 -43.96,12.05 -170.24,49.16 -201.28,67.34z"/>
     <path class="fil0" d="M9217.25 1449.77c-200.19,-78.64 -659.87,-191.06 -877.47,-185.11 -0.76,50.68 5.94,110.76 9.09,162.71 9.19,151.73 -32.19,39.56 395.11,140.06l211.1 54.17c33.16,10.15 34.3,2.42 63.06,-13.1 55.01,-29.66 176.53,-120.16 199.11,-158.73z"/>
     <path class="fil0" d="M7946.51 1405.36l361.01 0.14 -9.32 -185.9c-20.7,-6.65 -322.78,-6.35 -341.65,0.46l-10.04 185.3z"/>
     <path class="fil0" d="M7974.48 981.83c-8.86,22.68 -12.41,151.39 -13.31,186.24l333.09 0.38 -10.16 -186.47c-60.59,-7.54 -290.25,-6.39 -309.62,-0.15z"/>
     <path class="fil0" d="M7974.79 931.58l303.66 0.32c2.56,-22.06 -3.51,-172.11 -10.87,-183.68 -8.11,-10.14 -37.81,-5.98 -62.46,-5.94l-217.84 0.72 -12.49 188.58z"/>
     <path class="fil0" d="M7935.09 1587.22c57.47,-5.76 141.42,-30.39 192.16,-30.57 45.77,-0.16 140.02,23.95 192.46,31.07l-7.77 -134.04 -367.92 -0.23 -8.93 133.77z"/>
     <path class="fil0" d="M7960.85 557.46c-0.03,53.52 33.46,40.03 83.95,40.03l178.65 0c30.36,0 50.27,5.81 64.72,-12.14 9.99,-16.06 6.48,-51.48 3.01,-73.66 -23.53,-17.76 -34.05,-12.05 -72.32,-12.05l-169.63 0c-71.14,0 -88.35,-15.55 -88.38,57.82z"/>
     <path class="fil0" d="M8031.05 481.32c69.83,0 163.22,4.52 229.85,-4.41 5.56,-16.24 8.56,-38.43 4.63,-56.97 -5.68,-26.84 -32.49,-19.16 -74.15,-19.2 -53.52,-0.08 -107.03,-0.03 -160.55,-0.22 -37.11,-0.12 -41.67,-0.06 -41.76,37.75 -0.1,38.72 2.52,43.05 41.98,43.05z"/>
     <path class="fil0" d="M7989.81 693.92l274.11 0.45 -1.77 -74.9c-23.71,-5.65 -248.32,-5.77 -269.1,0.47l-3.24 73.98z"/>
    </g>
    <path class="fil0" d="M7924.65 5612.29c-0.37,16.3 -1.7,38.7 -0.95,69.23 3.39,139.7 44.03,262.61 78.29,398.81 12.7,50.49 110.42,475.76 126.79,508.85 24.82,-39.54 149.41,-607.26 181.83,-731.49 25.76,-98.73 19.71,-145.16 21.92,-218.75l0 -26.65 -407.88 0z"/>
   </g>
   <g>
    <path class="fil1" d="M7151.58 7063.07l0 179.43 9.06 0c30.21,0 52.41,-5.59 66.61,-16.77 14.19,-11.17 21.29,-30.96 21.29,-59.35 0,-25.98 -6.95,-46.22 -20.84,-60.72 27.79,-6.04 53.16,-13.89 76.12,-23.56 22.96,-9.67 42.29,-22.35 58,-38.06 25.37,15.1 43.49,34.28 54.37,57.54 10.87,23.26 16.31,51.81 16.31,85.64 0,56.18 -20.54,99.38 -61.62,129.58 -41.08,30.21 -103.61,45.31 -187.58,45.31l-208.43 0 0 -483 176.71 0 0 98.78 8.15 0c27.19,0 46.98,-5.29 59.36,-15.86 12.38,-10.57 18.58,-29.15 18.58,-55.73 0,-27.19 -6.2,-46.07 -18.58,-56.64 -12.38,-10.57 -32.17,-15.86 -59.36,-15.86l-184.86 0 -49.84 -124.14 271.86 0c73.1,0 126.26,15.1 159.49,45.31 33.22,30.2 49.84,72.49 49.84,126.86 0,34.44 -7.7,63.28 -23.11,86.54 -15.4,23.26 -35.79,41.84 -61.17,55.73 -25.37,13.9 -52.86,23.87 -82.46,29.91 -29.6,6.04 -58.9,9.06 -87.9,9.06zm520.15 99.68l-176.7 0 0 -453.09 176.7 0 0 453.09zm-176.7 45.31l376.97 0 -28.09 154.05 -348.88 0 0 -154.05zm560.02 -505.65l191.21 0 151.33 659.7 -187.58 0 -9.97 -42.59 -84.27 0 24.46 -140.46 27.19 0 -112.37 -476.65zm6.34 659.7l-189.39 0 150.43 -598.99 84.27 353.42 -45.31 245.57zm521.97 -345.25l-190.3 0c1.81,-79.75 13.14,-142.43 33.98,-188.04 20.85,-45.61 50.9,-78.08 90.17,-97.42 39.27,-19.33 87.9,-28.99 145.9,-28.99 19.33,0 41.53,1.05 66.6,3.17 25.07,2.11 49.39,5.89 72.95,11.33l0 239.23 -109.65 0 -14.5 -109.65c-15.1,0 -28.54,1.81 -40.32,5.44 -11.78,3.62 -21.6,11.02 -29.46,22.2 -7.85,11.18 -13.89,28.24 -18.12,51.2 -4.23,22.96 -6.64,53.46 -7.25,91.53zm-190.3 45.3l190.3 0c3.02,61.63 16.01,104.07 38.97,127.32 22.95,23.26 57.39,34.89 103.3,34.89 14.5,0 28.4,-0.9 41.69,-2.72 13.29,-1.81 27.49,-3.92 42.59,-6.34l0 143.18c-17.52,4.23 -38.67,7.4 -63.43,9.51 -24.77,2.12 -46.82,3.18 -66.16,3.18 -99.68,0 -171.72,-25.98 -216.12,-77.94 -44.41,-51.95 -68.12,-128.98 -71.14,-231.08zm656.99 -232.89l-176.71 415.04 0 -534.65 176.71 0 0 119.61zm3.62 532.84l-180.33 0 273.67 -652.45 181.24 0 -274.58 652.45zm70.69 -51.65l103.3 -241.95 103.31 293.6 -190.3 0 -16.31 -51.65z"/>
    <path class="fil1" d="M6980.76 7702.59l-74.31 158.58 -38.06 -17.22c-35.64,-16.31 -63.13,-38.06 -82.46,-65.24 -19.33,-27.19 -29,-66.76 -29,-118.71 0,-66.46 17.37,-116.15 52.11,-149.07 34.74,-32.93 92.28,-49.69 172.63,-50.3 33.23,0 63.43,1.52 90.62,4.54 27.18,3.02 48.93,6.19 65.24,9.51 16.32,3.32 24.47,4.98 24.47,4.98l-18.12 145.9c0,0 -7.4,-0.9 -22.2,-2.72 -14.81,-1.81 -33.08,-3.47 -54.83,-4.98 -21.75,-1.51 -42.89,-2.27 -63.43,-2.27 -21.75,0 -38.21,3.17 -49.39,9.52 -11.18,6.34 -16.76,18.27 -16.76,35.79 0,9.67 3.92,17.52 11.78,23.56 7.85,6.05 18.42,12.09 31.71,18.13zm-32.62 178.52l75.21 -160.4 38.97 17.22c41.08,18.12 70.98,40.63 89.71,67.51 18.73,26.88 28.09,65.1 28.09,114.63 0,67.06 -17.52,118.71 -52.55,154.96 -35.04,36.25 -92.74,54.68 -173.09,55.28 -39.87,0 -77.02,-2.57 -111.46,-7.7 -34.43,-5.14 -64.94,-11.03 -91.52,-17.67l18.12 -145.9c0,0 7.4,1.21 22.2,3.62 14.8,2.42 34.59,4.84 59.36,7.25 24.77,2.42 51.95,3.63 81.55,3.63 22.96,0 40.18,-3.32 51.66,-9.97 11.48,-6.64 17.21,-17.52 17.21,-32.62 0,-10.27 -2.71,-18.43 -8.15,-24.47 -5.44,-6.04 -15.1,-12.08 -29,-18.12l-16.31 -7.25zm472.13 -292.7l-176.71 415.03 0 -534.65 176.71 0 0 119.62zm3.62 532.84l-180.33 0 273.67 -652.46 181.24 0 -274.58 652.46zm70.68 -51.65l103.31 -241.96 103.3 293.61 -190.3 0 -16.31 -51.65zm488.44 59.8l0 -146.8c14.5,-10.27 21.75,-38.06 21.75,-83.37l0 -430.44 176.71 0 0 422.29c0,79.14 -16.32,137.74 -48.94,175.8 -32.62,38.06 -82.46,58.9 -149.52,62.52zm-45.31 -144.99l0 144.99c-67.66,-3.02 -117.96,-23.56 -150.88,-61.62 -32.93,-38.06 -49.39,-96.96 -49.39,-176.7l0 -422.29 176.71 0 0 430.44c0,46.52 7.85,74.91 23.56,85.18zm497.5 -62.52l-176.71 0 0 -453.1 176.71 0 0 453.1zm-176.71 45.31l376.98 0 -28.09 154.05 -348.89 0 0 -154.05zm598.99 -45.31l-176.7 0 0 -453.1 176.7 0 0 453.1zm-176.7 45.31l376.97 0 -28.09 154.05 -348.88 0 0 -154.05zm624.36 -264.61l-74.3 158.58 -38.06 -17.22c-35.65,-16.31 -63.14,-38.06 -82.47,-65.24 -19.33,-27.19 -29,-66.76 -29,-118.71 0,-66.46 17.37,-116.15 52.11,-149.07 34.74,-32.93 92.28,-49.69 172.63,-50.3 33.23,0 63.43,1.52 90.62,4.54 27.18,3.02 48.93,6.19 65.24,9.51 16.32,3.32 24.47,4.98 24.47,4.98l-18.12 145.9c0,0 -7.4,-0.9 -22.2,-2.72 -14.81,-1.81 -33.08,-3.47 -54.83,-4.98 -21.75,-1.51 -42.89,-2.27 -63.43,-2.27 -21.75,0 -38.21,3.17 -49.39,9.52 -11.18,6.34 -16.76,18.27 -16.76,35.79 0,9.67 3.92,17.52 11.78,23.56 7.85,6.05 18.42,12.09 31.71,18.13zm-32.62 178.52l75.21 -160.4 38.97 17.22c41.08,18.12 70.99,40.63 89.71,67.51 18.73,26.88 28.1,65.1 28.1,114.63 0,67.06 -17.52,118.71 -52.56,154.96 -35.04,36.25 -92.74,54.68 -173.09,55.28 -39.87,0 -77.02,-2.57 -111.46,-7.7 -34.43,-5.14 -64.94,-11.03 -91.52,-17.67l18.12 -145.9c0,0 7.4,1.21 22.2,3.62 14.8,2.42 34.59,4.84 59.36,7.25 24.77,2.42 51.95,3.63 81.55,3.63 22.96,0 40.18,-3.32 51.66,-9.97 11.48,-6.64 17.22,-17.52 17.22,-32.62 0,-10.27 -2.72,-18.43 -8.16,-24.47 -5.44,-6.04 -15.1,-12.08 -29,-18.12l-16.31 -7.25z"/>
    <path class="fil1" d="M7509.59 8226.83l0 24.55 -42.4 0 0 -24.55 42.4 0zm51.23 -26.86l0 -28.26 89.04 0 -5.3 28.26 -83.74 0zm25.79 8.84l34.63 0 0 90.1 -34.63 0 0 -90.1zm86.57 -38.52l37.27 0 29.51 128.62 -36.57 0 -1.95 -8.31 -16.43 0 4.77 -27.38 5.3 0 -21.9 -92.93zm1.23 128.62l-36.92 0 29.33 -116.78 16.43 68.9 -8.84 47.88zm101.76 -67.31l-37.1 0c0.36,-15.55 2.57,-27.77 6.63,-36.66 4.06,-8.89 9.92,-15.22 17.58,-18.99 7.65,-3.77 17.13,-5.66 28.44,-5.66 3.77,0 8.1,0.21 12.98,0.62 4.89,0.42 9.63,1.15 14.23,2.21l0 46.64 -21.38 0 -2.83 -21.38c-2.94,0 -5.56,0.36 -7.86,1.06 -2.3,0.71 -4.21,2.15 -5.74,4.33 -1.53,2.18 -2.71,5.51 -3.53,9.98 -0.83,4.48 -1.3,10.43 -1.42,17.85zm-37.1 8.83l37.1 0c0.59,12.01 3.12,20.29 7.6,24.82 4.48,4.54 11.19,6.8 20.14,6.8 2.83,0 5.53,-0.17 8.13,-0.53 2.59,-0.35 5.35,-0.76 8.3,-1.23l0 27.91c-3.42,0.82 -7.54,1.44 -12.37,1.86 -4.83,0.41 -9.12,0.61 -12.89,0.61 -19.44,0 -33.48,-5.06 -42.14,-15.19 -8.65,-10.13 -13.28,-25.15 -13.87,-45.05zm86.57 -40.46l0 -28.26 89.04 0 -5.3 28.26 -83.74 0zm25.79 8.84l34.63 0 0 90.1 -34.63 0 0 -90.1zm72.08 -37.1l34.45 0 0 127.2 -34.45 0 0 -127.2zm83.03 59.89l-37.1 0c0.36,-15.55 2.57,-27.77 6.63,-36.66 4.06,-8.89 9.92,-15.22 17.58,-18.99 7.65,-3.77 17.13,-5.66 28.44,-5.66 3.77,0 8.1,0.21 12.98,0.62 4.89,0.42 9.63,1.15 14.23,2.21l0 46.64 -21.38 0 -2.83 -21.38c-2.94,0 -5.56,0.36 -7.86,1.06 -2.3,0.71 -4.21,2.15 -5.74,4.33 -1.53,2.18 -2.71,5.51 -3.53,9.98 -0.83,4.48 -1.3,10.43 -1.42,17.85zm-37.1 8.83l37.1 0c0.59,12.01 3.12,20.29 7.6,24.82 4.48,4.54 11.19,6.8 20.14,6.8 2.83,0 5.53,-0.17 8.13,-0.53 2.59,-0.35 5.35,-0.76 8.3,-1.23l0 27.91c-3.42,0.82 -7.54,1.44 -12.37,1.86 -4.83,0.41 -9.12,0.61 -12.89,0.61 -19.44,0 -33.48,-5.06 -42.14,-15.19 -8.65,-10.13 -13.28,-25.15 -13.87,-45.05zm122.26 -70.14l37.27 0 29.5 128.62 -36.57 0 -1.94 -8.31 -16.43 0 4.77 -27.38 5.3 0 -21.9 -92.93zm1.23 128.62l-36.92 0 29.33 -116.78 16.43 68.9 -8.84 47.88zm108.83 -38.87l-34.45 0 0 -88.33 34.45 0 0 88.33zm-34.45 8.83l73.49 0 -5.48 30.04 -68.01 0 0 -30.04zm120.31 -68.9l0 -28.26 89.03 0 -5.3 28.26 -83.73 0zm25.79 8.84l34.63 0 0 90.1 -34.63 0 0 -90.1zm75.43 -8.84l-11.3 -28.26 84.62 0 -5.3 28.26 -68.02 0zm-1.59 8.84l34.45 0 0 10.6 33.04 0 -5.3 28.26 -27.74 0 0 22.97 41.7 0 -5.3 28.27 -70.85 0 0 -90.1zm113.6 -38.52l37.28 0 29.5 128.62 -36.57 0 -1.94 -8.31 -16.43 0 4.77 -27.38 5.3 0 -21.91 -92.93zm1.24 128.62l-36.93 0 29.33 -116.78 16.43 68.9 -8.83 47.88zm137.79 -26.15l-17.84 0 -58.83 -101.05 43.81 0 24.74 53.17 24.73 -53.17 34.45 0 -51.06 101.05zm15.55 -12.01l33.57 -66.78 0 104.94 -33.57 0 0 -38.16zm-80.74 -53l33.57 59.36 0 31.8 -33.57 0 0 -91.16zm214.12 19.08l0 24.55 -42.4 0 0 -24.55 42.4 0z"/>
   </g>
  </g>
 </g>
</svg>
